HIERARCHY
ROOT Hips
{
    OFFSET 0.000000 0.000000 0.000000
    CHANNELS 6 Xposition Yposition Zposition Zrotation Xrotation Yrotation
    JOINT Spine
    {
        OFFSET -0.000000 14.517291 0.000000
        CHANNELS 3 Zrotation Xrotation Yrotation
        JOINT Spine1
        {
            OFFSET -0.000000 37.558300 0.000000
            CHANNELS 3 Zrotation Xrotation Yrotation
            JOINT Neck
            {
                OFFSET -0.000000 37.404057 3.400369
                CHANNELS 3 Zrotation Xrotation Yrotation
                JOINT Head
                {
                    OFFSET -0.000000 24.785618 -3.540803
                    CHANNELS 3 Zrotation Xrotation Yrotation
                    End Site
                    {
                        OFFSET -0.000000 35.408028 0.000000
                    }
                }
            }
            JOINT LeftShoulder
            {
                OFFSET 6.992933 33.973492 -0.192664
                CHANNELS 3 Zrotation Xrotation Yrotation
                JOINT LeftArm
                {
                    OFFSET 21.527611 0.000000 0.000000
                    CHANNELS 3 Zrotation Xrotation Yrotation
                    JOINT LeftForeArm
                    {
                        OFFSET 56.353916 0.000000 0.000000
                        CHANNELS 3 Zrotation Xrotation Yrotation
                        JOINT LeftHand
                        {
                            OFFSET 47.774071 0.000000 0.000000
                            CHANNELS 3 Zrotation Xrotation Yrotation
                            End Site
                            {
                                OFFSET 26.556021 0.000000 0.000000
                            }
                        }
                    }
                }
            }
            JOINT RightShoulder
            {
                OFFSET -7.065357 33.973492 -0.192664
                CHANNELS 3 Zrotation Xrotation Yrotation
                JOINT RightArm
                {
                    OFFSET -21.527611 0.000000 0.000000
                    CHANNELS 3 Zrotation Xrotation Yrotation
                    JOINT RightForeArm
                    {
                        OFFSET -56.353916 0.000000 0.000000
                        CHANNELS 3 Zrotation Xrotation Yrotation
                        JOINT RightHand
                        {
                            OFFSET -47.774071 0.000000 0.000000
                            CHANNELS 3 Zrotation Xrotation Yrotation
                            End Site
                            {
                                OFFSET -26.556021 0.000000 0.000000
                            }
                        }
                    }
                }
            }
        }
    }
    JOINT LeftUpLeg
    {
        OFFSET 17.704014 0.000000 0.000000
        CHANNELS 3 Zrotation Xrotation Yrotation
        JOINT LeftLeg
        {
            OFFSET -0.000000 -81.181816 0.000000
            CHANNELS 3 Zrotation Xrotation Yrotation
            JOINT LeftFoot
            {
                OFFSET -0.000000 -62.821102 0.000000
                CHANNELS 3 Zrotation Xrotation Yrotation
                JOINT LeftToeBase
                {
                    OFFSET -0.000000 -11.507608 26.556021
                    CHANNELS 3 Zrotation Xrotation Yrotation
                    End Site
                    {
                        OFFSET -0.000000 0.000000 7.081605
                    }
                }
            }
        }
    }
    JOINT RightUpLeg
    {
        OFFSET -17.704014 0.000000 0.000000
        CHANNELS 3 Zrotation Xrotation Yrotation
        JOINT RightLeg
        {
            OFFSET -0.000000 -81.181816 0.000000
            CHANNELS 3 Zrotation Xrotation Yrotation
            JOINT RightFoot
            {
                OFFSET -0.000000 -62.821102 0.000000
                CHANNELS 3 Zrotation Xrotation Yrotation
                JOINT RightToeBase
                {
                    OFFSET -0.000000 -11.507608 26.556021
                    CHANNELS 3 Zrotation Xrotation Yrotation
                    End Site
                    {
                        OFFSET -0.000000 0.000000 7.081605
                    }
                }
            }
        }
    }
}
MOTION
Frames:    13
Frame Time:    0.008333
-10.003956    152.819778    -98.342186    2.652826    -5.218113    45.060699    -1.389867    -1.604743    -0.339956    2.230343    4.727918    -0.199260    -5.203077    5.234624    -18.138304    15.965528    0.272624    -16.191898    2.910655    6.624811    -12.455952    -26.634159    22.276400    -5.916878    -10.700514    -17.517578    -125.093605    -11.759452    -34.482063    -18.370493    1.198451    12.248379    -6.704551    36.332451    15.522899    42.470123    -13.125321    0.928330    36.157921    -26.737305    -1.920572    29.404108    16.281668    -0.478483    -4.638312    -18.266218    38.431526    -20.015436    7.781812    -30.636381    50.992352    0.000000    0.000000    0.000000    -24.714518    -14.597199    -25.528217    9.512490    27.870111    -18.571978    7.407358    7.821138    -6.536187    0.000000    0.000000    0.000000    
-10.013988    152.822083    -98.340866    2.671709    -5.240519    45.106632    -1.366104    -1.611732    -0.348865    2.120637    4.735105    -0.197719    -5.037818    5.253301    -18.090773    15.941406    0.277396    -16.163736    2.782915    6.855444    -12.553293    -26.711697    21.928247    -7.202827    -9.784788    -18.127134    -124.279053    -11.419573    -33.223011    -18.843250    1.233287    12.250585    -6.702202    36.305492    15.615436    42.533962    -13.148198    0.909124    36.109951    -26.788155    -1.942683    29.365839    16.292257    -0.473323    -4.695632    -18.276293    38.435734    -20.034201    7.778857    -30.639633    51.012890    0.000000    0.000000    0.000000    -24.709942    -14.551474    -25.534075    9.509752    27.869814    -18.570185    7.410775    7.811889    -6.548713    0.000000    0.000000    0.000000    
-10.029052    152.819717    -98.337402    2.684190    -5.269203    45.150425    -1.334288    -1.624301    -0.356837    2.007149    4.760897    -0.196514    -4.863387    5.257113    -18.045326    15.899630    0.272308    -16.139057    2.657070    7.073454    -12.683086    -26.802830    21.525648    -8.497946    -9.508968    -18.585091    -123.787766    -11.215604    -33.051323    -18.768044    1.261952    12.244501    -6.698100    36.270496    15.727598    42.598278    -13.175295    0.863196    36.073208    -26.760841    -1.987993    29.409885    16.318836    -0.468465    -4.749192    -18.307110    38.436378    -20.022135    7.787887    -30.630096    51.018528    0.000000    0.000000    0.000000    -24.693867    -14.509864    -25.554266    9.498371    27.872704    -18.561972    7.415242    7.803097    -6.560920    0.000000    0.000000    0.000000    
-10.040734    152.813690    -98.335907    2.700907    -5.288784    45.198280    -1.312630    -1.636438    -0.371468    1.897246    4.789459    -0.197104    -4.706421    5.247047    -18.005156    15.869250    0.264468    -16.115572    2.540642    7.320595    -12.788881    -26.892559    21.357384    -9.833370    -9.127707    -19.376188    -123.318268    -11.110202    -33.013062    -18.692186    1.283683    12.239621    -6.698194    36.241913    15.828242    42.662994    -13.206221    0.839377    36.063305    -26.752470    -2.000274    29.408749    16.329348    -0.469814    -4.787651    -18.306629    38.454330    -20.063684    7.798253    -30.638144    51.035812    0.000000    0.000000    0.000000    -24.694408    -14.468820    -25.560444    9.508031    27.876305    -18.573576    7.398447    7.780684    -6.568271    0.000000    0.000000    0.000000    
-10.057312    152.806412    -98.331139    2.713454    -5.311742    45.245560    -1.303030    -1.647581    -0.387557    1.812679    4.820541    -0.199726    -4.554723    5.239293    -17.971972    15.824379    0.239535    -16.098673    2.431393    7.582717    -12.904443    -26.971138    20.986261    -11.162848    -8.901450    -19.891384    -122.852669    -11.166777    -32.965923    -18.683619    1.311905    12.238873    -6.700475    36.180431    15.931407    42.743164    -13.215477    0.773073    36.067757    -26.754349    -2.034779    29.296412    16.352034    -0.470938    -4.818553    -18.320271    38.471107    -20.079559    7.802810    -30.647806    51.045265    0.000000    0.000000    0.000000    -24.685207    -14.433032    -25.567867    9.504142    27.889740    -18.565063    7.402794    7.750028    -6.594071    0.000000    0.000000    0.000000    
-10.076911    152.797531    -98.331886    2.728150    -5.329569    45.285378    -1.292141    -1.653887    -0.409534    1.710268    4.861727    -0.203476    -4.397375    5.211923    -17.934153    15.780443    0.206713    -16.075510    2.342006    7.868796    -13.011220    -27.050446    20.499241    -12.488338    -8.753704    -20.263193    -122.459732    -11.264957    -32.943203    -18.634413    1.354511    12.226206    -6.694104    36.132710    15.978775    42.822315    -13.188575    0.768307    36.059509    -26.773743    -2.069319    29.353184    16.365646    -0.472092    -4.847883    -18.323383    38.484364    -20.094076    7.825434    -30.640453    51.040821    0.000000    0.000000    0.000000    -24.684080    -14.405971    -25.585859    9.502620    27.905060    -18.576939    7.412627    7.724788    -6.599941    0.000000    0.000000    0.000000    
-10.098865    152.789063    -98.329292    2.735589    -5.342231    45.328457    -1.296895    -1.668163    -0.435930    1.639457    4.911176    -0.209788    -4.263724    5.179143    -17.904858    15.735597    0.161842    -16.057234    2.254843    8.120481    -13.132460    -27.128399    20.203896    -13.779791    -8.516505    -20.829222    -122.100784    -11.208694    -32.996834    -18.534864    1.381820    12.193398    -6.694384    36.077614    16.045599    42.889214    -13.179131    0.760887    36.084572    -26.798584    -2.080344    29.340773    16.385572    -0.489350    -4.863733    -18.334784    38.507862    -20.107424    7.828873    -30.643200    51.040985    0.000000    0.000000    0.000000    -24.678890    -14.383973    -25.594898    9.498922    27.917875    -18.596878    7.413873    7.704332    -6.595736    0.000000    0.000000    0.000000    
-10.124969    152.782196    -98.332550    2.743679    -5.355305    45.365913    -1.295316    -1.669256    -0.470306    1.558065    4.953568    -0.218444    -4.128471    5.131554    -17.881819    15.679049    0.126447    -16.048145    2.183197    8.341846    -13.260392    -27.205391    20.085220    -15.032013    -8.144941    -21.705107    -121.735497    -11.307876    -33.096153    -18.587658    1.411740    12.159610    -6.685111    36.018723    16.097462    42.968079    -13.180243    0.897742    36.107723    -26.957121    -1.975779    29.307682    16.400501    -0.504663    -4.882070    -18.336020    38.527180    -20.117825    7.832534    -30.643866    51.034805    0.000000    0.000000    0.000000    -24.675335    -14.372814    -25.604437    9.497264    27.940109    -18.615202    7.414273    7.690689    -6.601713    0.000000    0.000000    0.000000    
-10.152032    152.775620    -98.335007    2.752409    -5.367407    45.407295    -1.297377    -1.666324    -0.512518    1.482144    4.995809    -0.229447    -4.019798    5.091468    -17.854666    15.647006    0.078961    -16.027388    2.110527    8.546700    -13.399769    -27.260885    19.863134    -16.240673    -7.818725    -22.370371    -121.378403    -11.534472    -33.062943    -18.771181    1.432283    12.129653    -6.681664    35.962528    16.159456    43.056084    -13.172377    0.919030    36.149971    -26.956911    -1.953269    29.314013    16.416798    -0.525206    -4.891969    -18.337824    38.556786    -20.127872    7.822923    -30.647827    51.017929    0.000000    0.000000    0.000000    -24.675505    -14.355748    -25.604696    9.508407    27.955057    -18.629314    7.406643    7.675233    -6.614460    0.000000    0.000000    0.000000    
-10.185381    152.769043    -98.343567    2.752514    -5.368957    45.439663    -1.298474    -1.665994    -0.556276    1.393914    5.024762    -0.240558    -3.877787    5.066865    -17.834797    15.571592    0.005720    -16.020933    2.067157    8.741905    -13.548700    -27.294344    19.723389    -17.417673    -7.488967    -23.120350    -121.070343    -11.528785    -33.172382    -18.772295    1.466666    12.082643    -6.664397    35.903778    16.210300    43.119717    -13.164339    0.944700    36.195503    -26.944727    -1.931144    29.353447    16.430304    -0.562737    -4.890408    -18.327557    38.600548    -20.167061    7.811790    -30.654148    51.011581    0.000000    0.000000    0.000000    -24.676397    -14.362406    -25.618776    9.505920    27.976360    -18.618019    7.406664    7.670979    -6.638341    0.000000    0.000000    0.000000    
-10.214350    152.762451    -98.351517    2.753272    -5.368402    45.471630    -1.315131    -1.656942    -0.614919    1.346280    5.033936    -0.258300    -3.774649    5.046232    -17.805368    15.489897    -0.056001    -16.003086    2.000141    8.900797    -13.661397    -27.336430    19.567827    -18.574286    -7.156783    -23.781960    -120.728279    -11.790176    -33.144958    -18.989641    1.457562    12.050074    -6.644307    35.855694    16.274021    43.200302    -13.150648    0.933711    36.256371    -26.921240    -1.923299    29.318058    16.443295    -0.597450    -4.910558    -18.350636    38.622547    -20.146444    7.803487    -30.650524    50.988766    0.000000    0.000000    0.000000    -24.684088    -14.372721    -25.632568    9.509208    28.009384    -18.614643    7.406368    7.660204    -6.659408    0.000000    0.000000    0.000000    
-10.246738    152.756271    -98.362442    2.754745    -5.364135    45.495880    -1.327000    -1.643785    -0.674258    1.279154    5.031861    -0.274964    -3.679060    5.050231    -17.772861    15.434930    -0.132439    -15.976452    1.967896    9.052289    -13.758059    -27.380806    19.410032    -19.732233    -6.854758    -24.390169    -120.404716    -11.860878    -33.167767    -19.067719    1.468347    12.023774    -6.616620    35.794437    16.346020    43.284550    -13.191019    0.924907    36.287731    -26.921970    -1.917426    29.327950    16.448397    -0.631764    -4.895844    -18.339869    38.654079    -20.168539    7.791387    -30.651569    50.972389    0.000000    0.000000    0.000000    -24.699007    -14.390396    -25.654795    9.515506    28.043566    -18.613140    7.408709    7.665734    -6.678308    0.000000    0.000000    0.000000    
-10.277624    152.749680    -98.374268    2.758084    -5.357861    45.517918    -1.342468    -1.625156    -0.736551    1.209707    5.028198    -0.292797    -3.545757    5.047780    -17.736109    15.326420    -0.228532    -15.954086    1.941541    9.170005    -13.858662    -27.417683    19.289614    -20.849983    -6.464414    -25.078587    -120.041397    -12.086010    -33.109295    -19.205992    1.489067    11.987778    -6.591941    35.736000    16.399176    43.361477    -13.179708    0.900744    36.349442    -26.942326    -1.944660    29.334110    16.452471    -0.661380    -4.898692    -18.346655    38.670155    -20.155220    7.779641    -30.650602    50.935848    0.000000    0.000000    0.000000    -24.716789    -14.408114    -25.648672    9.534870    28.073721    -18.633066    7.407317    7.664527    -6.690023    0.000000    0.000000    0.000000    
